<svg width="24" height="24" viewBox="0 0 24 24" fill="none" xmlns="http://www.w3.org/2000/svg">
<path d="M14.6429 11.1429C14.6429 12.6025 13.4596 13.7857 12 13.7857C10.5404 13.7857 9.35718 12.6025 9.35718 11.1429C9.35718 9.68325 10.5404 8.5 12 8.5C13.4596 8.5 14.6429 9.68325 14.6429 11.1429Z" stroke="black"/>
<path d="M15.9286 19C15.9286 17.4286 14.1697 15.8571 12 15.8571C9.83029 15.8571 8.07141 17.4286 8.07141 19" stroke="black" stroke-linecap="round" stroke-linejoin="round"/>
<path d="M20 12C20 16.4183 16.4183 20 12 20C7.58172 20 4 16.4183 4 12C4 7.58172 7.58172 4 12 4C16.4183 4 20 7.58172 20 12Z" stroke="black"/>
</svg>
