<svg width="24" height="24" viewBox="0 0 24 24" fill="none" xmlns="http://www.w3.org/2000/svg">
<path fill-rule="evenodd" clip-rule="evenodd" d="M12.554 1.59428C12.1885 1.51911 11.8115 1.51911 11.446 1.59428C11.0304 1.67975 10.6504 1.89128 10.1668 2.16041L10.0817 2.20773L4.28171 5.42995L4.19151 5.48001C3.68078 5.76321 3.27953 5.98571 2.97774 6.3132C2.71243 6.6011 2.51165 6.94232 2.38883 7.31406C2.24912 7.73691 2.24948 8.19573 2.24995 8.77972L2.25 8.88288V15.1171L2.24995 15.2203C2.24948 15.8042 2.24912 16.2631 2.38883 16.6859C2.51165 17.0576 2.71243 17.3989 2.97774 17.6868C3.27953 18.0143 3.68078 18.2368 4.19151 18.52L4.28171 18.57L10.0817 21.7922L10.1668 21.8396C10.6504 22.1087 11.0304 22.3202 11.446 22.4057C11.8115 22.4809 12.1885 22.4809 12.554 22.4057C12.9696 22.3202 13.3496 22.1087 13.8332 21.8396L13.9183 21.7922L19.7183 18.57L19.8085 18.52C20.3192 18.2368 20.7205 18.0143 21.0223 17.6868C21.2876 17.3989 21.4883 17.0576 21.6112 16.6859C21.7509 16.2631 21.7505 15.8043 21.7501 15.2203V15.2203L21.75 15.1171V8.88288L21.7501 8.77971V8.77969C21.7505 8.19572 21.7509 7.73691 21.6112 7.31406C21.4883 6.94232 21.2876 6.6011 21.0223 6.3132C20.7205 5.98571 20.3192 5.76321 19.8085 5.48L19.7183 5.42995L13.9183 2.20773L13.8332 2.16041C13.3496 1.89128 12.9696 1.67975 12.554 1.59428ZM11.7482 3.06353C11.9143 3.02936 12.0857 3.02936 12.2518 3.06353C12.4129 3.09665 12.5802 3.18026 13.1898 3.51897L18.9898 6.74119C19.2974 6.91206 19.4965 7.02502 19.6333 7.11021L12 11.1514L4.36671 7.11021C4.50351 7.02502 4.70261 6.91206 5.01017 6.74119L10.8102 3.51897C11.4198 3.18026 11.5871 3.09665 11.7482 3.06353ZM3.75156 8.48178C3.7504 8.59442 3.75 8.7265 3.75 8.88288V15.1171C3.75 15.854 3.759 16.0516 3.81311 16.2153C3.86893 16.3843 3.9602 16.5394 4.08079 16.6703C4.19766 16.7971 4.36601 16.9009 5.01017 17.2588L10.8102 20.481C10.9924 20.5823 11.1352 20.6607 11.25 20.7218V12.4515L3.75156 8.48178ZM12.75 20.7218C12.8648 20.6607 13.0076 20.5823 13.1898 20.481L18.9898 17.2588C19.634 16.9009 19.8023 16.7971 19.9192 16.6703C20.0398 16.5394 20.1311 16.3843 20.1869 16.2153C20.241 16.0516 20.25 15.854 20.25 15.1171V8.88288C20.25 8.7265 20.2496 8.59442 20.2484 8.48178L12.75 12.4515V20.7218Z" fill="#1E6BDE"/>
</svg>
