<svg width="24" height="24" viewBox="0 0 24 24" fill="none" xmlns="http://www.w3.org/2000/svg">
<path d="M7.32573 7.99998V8.74998V7.99998ZM18.6126 7.99998V7.24998V7.99998ZM19.5613 9.3162L18.8497 9.07903V9.07903L19.5613 9.3162ZM18.4096 12.7712L17.6981 12.5341V12.5341L18.4096 12.7712ZM16.7112 14.1289L16.6366 13.3826L16.7112 14.1289ZM9.66294 14.8337L9.73756 15.58L9.66294 14.8337ZM6.36421 9.2747L5.64306 9.48074L6.36421 9.2747ZM7.54088 13.393L8.26202 13.187L7.54088 13.393ZM6.27643 11.6973C6.38542 12.0969 6.79772 12.3325 7.19734 12.2235C7.59696 12.1145 7.83256 11.7022 7.72357 11.3026L6.27643 11.6973ZM5.90194 7.47376L5.17837 7.6711H5.17837L5.90194 7.47376ZM3.97239 6L3.9724 6.75H3.9724L3.97239 6ZM3.49999 5.25001C3.08578 5.25001 2.74999 5.5858 2.75 6.00002C2.75001 6.41423 3.0858 6.75001 3.50001 6.75001L3.49999 5.25001ZM7.32573 8.74998H18.6126V7.24998L7.32573 7.24998V8.74998ZM18.8497 9.07903L17.6981 12.5341L19.1211 13.0084L20.2728 9.55337L18.8497 9.07903ZM16.6366 13.3826L9.58831 14.0874L9.73756 15.58L16.7859 14.8751L16.6366 13.3826ZM5.64306 9.48074L6.81974 13.5991L8.26202 13.187L7.08535 9.06866L5.64306 9.48074ZM17.6981 12.5341C17.5423 13.0013 17.1267 13.3336 16.6366 13.3826L16.7859 14.8751C17.8641 14.7673 18.7784 14.0364 19.1211 13.0084L17.6981 12.5341ZM18.6126 8.74998C18.7832 8.74998 18.9037 8.91715 18.8497 9.07903L20.2728 9.55337C20.6505 8.42019 19.8071 7.24998 18.6126 7.24998V8.74998ZM7.32573 7.24998C6.16307 7.24998 5.32366 8.36281 5.64306 9.48074L7.08535 9.06866C7.03972 8.90895 7.15964 8.74998 7.32573 8.74998V7.24998ZM9.58831 14.0874C8.98663 14.1476 8.42814 13.7684 8.26202 13.187L6.81974 13.5991C7.1852 14.8782 8.41386 15.7123 9.73756 15.58L9.58831 14.0874ZM16 18.25C15.8619 18.25 15.75 18.138 15.75 18H14.25C14.25 18.9665 15.0335 19.75 16 19.75V18.25ZM15.75 18C15.75 17.8619 15.8619 17.75 16 17.75V16.25C15.0335 16.25 14.25 17.0335 14.25 18H15.75ZM16 17.75C16.1381 17.75 16.25 17.8619 16.25 18H17.75C17.75 17.0335 16.9665 16.25 16 16.25V17.75ZM16.25 18C16.25 18.138 16.1381 18.25 16 18.25V19.75C16.9665 19.75 17.75 18.9665 17.75 18H16.25ZM10 18.25C9.86193 18.25 9.75 18.138 9.75 18H8.25C8.25 18.9665 9.0335 19.75 10 19.75V18.25ZM9.75 18C9.75 17.8619 9.86193 17.75 10 17.75V16.25C9.0335 16.25 8.25 17.0335 8.25 18H9.75ZM10 17.75C10.1381 17.75 10.25 17.8619 10.25 18H11.75C11.75 17.0335 10.9665 16.25 10 16.25V17.75ZM10.25 18C10.25 18.138 10.1381 18.25 10 18.25V19.75C10.9665 19.75 11.75 18.9665 11.75 18H10.25ZM7.72357 11.3026L6.62552 7.27642L5.17837 7.6711L6.27643 11.6973L7.72357 11.3026ZM3.97238 5.25L3.49999 5.25001L3.50001 6.75001L3.9724 6.75L3.97238 5.25ZM6.62552 7.27642C6.29922 6.07999 5.21251 5.24998 3.97238 5.25L3.9724 6.75C4.53609 6.74999 5.03005 7.12727 5.17837 7.6711L6.62552 7.27642Z" fill="white"/>
</svg>
