<svg id="Capa_1" enable-background="new 0 0 512 512" height="512" viewBox="0 0 512 512" width="512" xmlns="http://www.w3.org/2000/svg"><g><g><path d="m386 87.5h-260c-22.091 0-40 17.909-40 40 0 22.091 17.909 40 40 40h260c22.091 0 40-17.909 40-40 0-22.091-17.909-40-40-40z" fill="#db818d"/></g><g><path d="m446 147.5h-380c-11.046 0-20 8.954-20 20v60h420v-60c0-11.046-8.954-20-20-20z" fill="#eb8d9a"/></g><g><path d="m126 147.5h-60c-11.046 0-20 8.954-20 20v60h60v-60c0-11.046 8.954-20 20-20z" fill="#db818d"/></g><g><path d="m46 227.5h420v257h-420z" fill="#e3e2e1"/></g><g><path d="m46 227.5h60v257h-60z" fill="#cacdcf"/></g><g><path d="m336 302.617h-160c-11.046 0-20 8.954-20 20v161.883h200v-161.883c0-11.046-8.954-20-20-20z" fill="#88c8e9"/></g><g><path d="m484.5 504.5h-457c-11.046 0-20-8.954-20-20 0-11.046 8.954-20 20-20h457c11.046 0 20 8.954 20 20 0 11.046-8.954 20-20 20z" fill="#f0f0ef"/></g><g><path d="m484.5 247.5h-457c-11.046 0-20-8.954-20-20 0-11.046 8.954-20 20-20h457c11.046 0 20 8.954 20 20 0 11.046-8.954 20-20 20z" fill="#f0f0ef"/></g><g><path d="m86 227.5c0-11.046 8.954-20 20-20h-78.5c-11.046 0-20 8.954-20 20s8.954 20 20 20h78.5c-11.046 0-20-8.954-20-20z" fill="#e3e2e1"/></g><g><path d="m86 484.5c0-11.046 8.954-20 20-20h-78.5c-11.046 0-20 8.954-20 20s8.954 20 20 20h78.5c-11.046 0-20-8.954-20-20z" fill="#e3e2e1"/></g><g><circle cx="256" cy="135.059" fill="#fce68d" r="127.559"/></g><g><path d="m256 135.058c0-47.118 25.681-88.347 63.779-110.435-18.773-10.884-40.561-17.123-63.779-17.123-70.336 0-127.558 57.222-127.558 127.558s57.222 127.559 127.558 127.559c23.218 0 45.006-6.239 63.779-17.123-38.098-22.088-63.779-63.318-63.779-110.436z" fill="#f0d87c"/></g><g><path d="m294.961 172.174c-5.127-2.574-8.836-7.207-10.838-12.583-4.248-11.407-15.236-19.532-28.123-19.532s-23.876 8.125-28.123 19.532c-2.002 5.376-5.711 10.009-10.838 12.583-6.546 3.286-11.039 10.061-11.039 17.885 0 11.046 8.954 20 20 20h60c11.046 0 20-8.954 20-20 0-7.824-4.493-14.599-11.039-17.885z" fill="#a78c7e"/></g><g><ellipse cx="201" cy="115.059" fill="#a78c7e" rx="20" ry="30"/></g><g><path d="m201 115.059c0-11.102 4.024-20.789 10-25.977-2.942-2.554-6.356-4.023-10-4.023-11.046 0-20 13.431-20 30s8.954 30 20 30c3.644 0 7.058-1.469 10-4.023-5.976-5.189-10-14.875-10-25.977z" fill="#947c70"/></g><g><ellipse cx="311" cy="115.059" fill="#a78c7e" rx="20" ry="30"/></g><g><path d="m311 115.059c0-11.102 4.024-20.789 10-25.977-2.942-2.554-6.356-4.023-10-4.023-11.046 0-20 13.431-20 30s8.954 30 20 30c3.644 0 7.058-1.469 10-4.023-5.976-5.189-10-14.875-10-25.977z" fill="#947c70"/></g><g><ellipse cx="256" cy="80.059" fill="#a78c7e" rx="20" ry="30"/></g><g><path d="m256 80.059c0-11.102 4.024-20.789 10-25.977-2.942-2.554-6.356-4.023-10-4.023-11.046 0-20 13.431-20 30s8.954 30 20 30c3.644 0 7.058-1.469 10-4.023-5.976-5.189-10-14.875-10-25.977z" fill="#947c70"/></g><g><path d="m282.331 192.56c-14.498 0-26.251-11.753-26.251-26.251 0-9.89 5.471-18.499 13.55-22.974-4.091-2.091-8.721-3.277-13.631-3.277-12.887 0-23.876 8.125-28.123 19.532-2.002 5.376-5.711 10.009-10.838 12.583-6.545 3.287-11.038 10.061-11.038 17.885 0 11.046 8.954 20 20 20h60c10.196 0 18.593-7.636 19.827-17.498z" fill="#947c70"/></g><g><path d="m484.5 457h-11v-202h11c15.164 0 27.5-12.336 27.5-27.5s-12.336-27.5-27.5-27.5h-11v-32.5c0-15.164-12.336-27.5-27.5-27.5h-14.191c1.105-4.06 1.691-8.267 1.691-12.5 0-26.191-21.309-47.5-47.5-47.5h-6.684c-21.114-47.104-68.444-80-123.316-80s-102.202 32.896-123.316 80h-6.684c-26.191 0-47.5 21.309-47.5 47.5 0 4.233.587 8.44 1.691 12.5h-14.191c-15.164 0-27.5 12.336-27.5 27.5v32.5h-11c-15.164 0-27.5 12.336-27.5 27.5s12.336 27.5 27.5 27.5h11v202h-11c-15.164 0-27.5 12.336-27.5 27.5s12.336 27.5 27.5 27.5h457c15.164 0 27.5-12.336 27.5-27.5s-12.336-27.5-27.5-27.5zm12.5-229.5c0 6.893-5.607 12.5-12.5 12.5h-143.585c8.979-7.28 17.009-15.684 23.873-25h119.712c6.893 0 12.5 5.607 12.5 12.5zm-38.5-60v32.5h-84.112c7.561-13.729 12.803-28.905 15.195-45h56.417c6.893 0 12.5 5.607 12.5 12.5zm-72.5-72.5c17.92 0 32.5 14.58 32.5 32.5 0 4.302-.869 8.562-2.507 12.5h-25.034c.059-1.641.1-3.286.1-4.941 0-13.942-2.124-27.397-6.064-40.059zm-130-80c66.201 0 120.059 53.858 120.059 120.059s-53.858 120.058-120.059 120.058-120.059-53.858-120.059-120.059 53.858-120.058 120.059-120.058zm-162.5 112.5c0-17.92 14.58-32.5 32.5-32.5h1.006c-3.94 12.662-6.064 26.117-6.064 40.059 0 1.655.041 3.301.1 4.941h-25.035c-1.638-3.938-2.507-8.198-2.507-12.5zm-40 40c0-6.893 5.607-12.5 12.5-12.5h56.416c2.392 16.095 7.634 31.271 15.195 45h-84.111zm-38.5 60c0-6.893 5.607-12.5 12.5-12.5h119.713c6.864 9.316 14.893 17.72 23.873 25h-143.586c-6.893 0-12.5-5.607-12.5-12.5zm38.5 27.5h140.436c.008 0 .016-.001.023-.001 18.588 9.654 39.687 15.118 62.041 15.118 22.355 0 43.455-5.465 62.044-15.12.021 0 .041.003.062.003h140.394v202h-95v-134.383c0-15.164-12.336-27.5-27.5-27.5h-160c-15.164 0-27.5 12.336-27.5 27.5v59.962c0 4.142 3.358 7.5 7.5 7.5s7.5-3.358 7.5-7.5v-59.962c0-6.893 5.607-12.5 12.5-12.5h72.5v146.883h-85v-44.42c0-4.142-3.358-7.5-7.5-7.5s-7.5 3.358-7.5 7.5v44.42h-95zm282.5 55.117c6.893 0 12.5 5.607 12.5 12.5v134.383h-85v-146.883zm148.5 186.883h-457c-6.893 0-12.5-5.607-12.5-12.5s5.607-12.5 12.5-12.5h457c6.893 0 12.5 5.607 12.5 12.5s-5.607 12.5-12.5 12.5z"/><path d="m299.512 166.104c-3.606-2.038-8.182-.767-10.219 2.841-2.038 3.606-.766 8.182 2.841 10.219 3.926 2.219 6.366 6.394 6.366 10.896 0 6.893-5.607 12.5-12.5 12.5h-60c-6.893 0-12.5-5.607-12.5-12.5 0-4.76 2.646-9.044 6.904-11.183 6.579-3.302 11.729-9.222 14.501-16.668 3.263-8.762 11.74-14.649 21.095-14.649 5.872 0 11.429 2.249 15.646 6.331 2.977 2.882 7.725 2.803 10.605-.172 2.881-2.976 2.804-7.724-.172-10.605-7.03-6.805-16.292-10.553-26.079-10.553-15.587 0-29.714 9.812-35.151 24.415-1.446 3.883-3.994 6.901-7.175 8.498-9.359 4.699-15.174 14.121-15.174 24.588 0 15.164 12.336 27.5 27.5 27.5h60c15.164 0 27.5-12.336 27.5-27.5 0-9.905-5.36-19.084-13.988-23.958z"/><path d="m201 152.559c15.42 0 27.5-16.472 27.5-37.5s-12.08-37.5-27.5-37.5-27.5 16.472-27.5 37.5 12.08 37.5 27.5 37.5zm0-60c5.912 0 12.5 9.24 12.5 22.5s-6.588 22.5-12.5 22.5-12.5-9.24-12.5-22.5 6.588-22.5 12.5-22.5z"/><path d="m311 152.559c15.42 0 27.5-16.472 27.5-37.5s-12.08-37.5-27.5-37.5-27.5 16.472-27.5 37.5 12.08 37.5 27.5 37.5zm0-60c5.912 0 12.5 9.24 12.5 22.5s-6.588 22.5-12.5 22.5-12.5-9.24-12.5-22.5 6.588-22.5 12.5-22.5z"/><path d="m256 117.559c15.42 0 27.5-16.472 27.5-37.5s-12.08-37.5-27.5-37.5-27.5 16.472-27.5 37.5 12.08 37.5 27.5 37.5zm0-60c5.912 0 12.5 9.24 12.5 22.5s-6.588 22.5-12.5 22.5-12.5-9.24-12.5-22.5 6.588-22.5 12.5-22.5z"/></g></g></svg>