<svg width="17" height="18" viewBox="0 0 17 18" fill="none" xmlns="http://www.w3.org/2000/svg">
<path d="M11 1.99998C12.933 1.99998 14.5 3.56698 14.5 5.49998M10.5 4.49998C11.3284 4.49998 12 5.17155 12 5.99998M14.0462 16.3956L15.0342 15.3528C15.5758 14.7811 15.5758 13.8856 15.0342 13.3138L13.7285 11.9356C13.1076 11.2802 12.089 11.2073 11.3811 11.7678L10.9474 12.1111C10.9474 12.1111 9.26317 13.4444 6.73686 10.7778C4.21055 8.11109 5.05264 6.33331 5.05264 6.33331L5.47015 5.45192C5.73236 4.89835 5.67504 4.24631 5.32025 3.74699L4.10255 2.03319C3.69657 1.4618 2.90512 1.32601 2.3319 1.72939L1.4285 2.36512C1.05759 2.62613 0.824329 3.04063 0.793708 3.49314C0.347424 10.0882 5.10157 15.8953 11.6549 16.76L12.6483 16.8911C13.1668 16.9595 13.6866 16.7753 14.0462 16.3956Z" stroke="black" stroke-width="1.5" stroke-linecap="round" stroke-linejoin="round"/>
</svg>
