<svg width="24" height="24" viewBox="0 0 24 24" fill="none" xmlns="http://www.w3.org/2000/svg">
<path d="M17.6489 9.32182C17.8267 9.69596 18.274 9.85518 18.6482 9.67745C19.0223 9.49971 19.1816 9.05232 19.0038 8.67818L17.6489 9.32182ZM19.0038 15.3218C19.1816 14.9477 19.0223 14.5003 18.6482 14.3226C18.274 14.1448 17.8267 14.304 17.6489 14.6782L19.0038 15.3218ZM15.5 9.25C15.0858 9.25 14.75 9.58579 14.75 10C14.75 10.4142 15.0858 10.75 15.5 10.75V9.25ZM18 10V9.25V10ZM19 9H19.75H19ZM19.75 6C19.75 5.58579 19.4142 5.25 19 5.25C18.5858 5.25 18.25 5.58579 18.25 6H19.75ZM12 18.25C8.54822 18.25 5.75 15.4518 5.75 12H4.25C4.25 16.2802 7.71979 19.75 12 19.75V18.25ZM5.75 12C5.75 8.54822 8.54822 5.75 12 5.75V4.25C7.71979 4.25 4.25 7.71979 4.25 12H5.75ZM12 5.75C14.4921 5.75 16.645 7.20852 17.6489 9.32182L19.0038 8.67818C17.7608 6.06159 15.0927 4.25 12 4.25V5.75ZM17.6489 14.6782C16.645 16.7915 14.4921 18.25 12 18.25V19.75C15.0927 19.75 17.7608 17.9384 19.0038 15.3218L17.6489 14.6782ZM15.5 10.75H18V9.25H15.5V10.75ZM19.75 9V6H18.25V9H19.75ZM18 10.75C18.9665 10.75 19.75 9.9665 19.75 9H18.25C18.25 9.13807 18.1381 9.25 18 9.25V10.75Z" fill="white"/>
</svg>
